<svg width="1134" height="970" viewBox="0 0 1134 970" fill="none" xmlns="http://www.w3.org/2000/svg">
<g filter="url(#filter0_df_246_59)">
<path d="M89 634.856C89 512.881 187.881 414 309.856 414H466.5C599.877 414 708 522.123 708 655.5C708 788.877 599.877 897 466.5 897H351.144C206.366 897 89 779.634 89 634.856Z" fill="#1030D6" fill-opacity="0.4" shape-rendering="crispEdges"/>
</g>
<g filter="url(#filter1_df_246_59)">
<path d="M315 258C315 158.589 395.589 78 495 78H600.321C784.607 78 934 227.393 934 411.679C934 494.147 867.147 561 784.679 561H447C374.098 561 315 501.902 315 429V258Z" fill="#D6107B" fill-opacity="0.4" shape-rendering="crispEdges"/>
</g>
<defs>
<filter id="filter0_df_246_59" x="-111" y="214" width="1019" height="883" filterUnits="userSpaceOnUse" color-interpolation-filters="sRGB">
<feFlood flood-opacity="0" result="BackgroundImageFix"/>
<feColorMatrix in="SourceAlpha" type="matrix" values="0 0 0 0 0 0 0 0 0 0 0 0 0 0 0 0 0 0 127 0" result="hardAlpha"/>
<feOffset dy="4"/>
<feGaussianBlur stdDeviation="5"/>
<feComposite in2="hardAlpha" operator="out"/>
<feColorMatrix type="matrix" values="0 0 0 0 0.0627451 0 0 0 0 0.188235 0 0 0 0 0.839216 0 0 0 0.25 0"/>
<feBlend mode="normal" in2="BackgroundImageFix" result="effect1_dropShadow_246_59"/>
<feBlend mode="normal" in="SourceGraphic" in2="effect1_dropShadow_246_59" result="shape"/>
<feGaussianBlur stdDeviation="100" result="effect2_foregroundBlur_246_59"/>
</filter>
<filter id="filter1_df_246_59" x="115" y="-122" width="1019" height="883" filterUnits="userSpaceOnUse" color-interpolation-filters="sRGB">
<feFlood flood-opacity="0" result="BackgroundImageFix"/>
<feColorMatrix in="SourceAlpha" type="matrix" values="0 0 0 0 0 0 0 0 0 0 0 0 0 0 0 0 0 0 127 0" result="hardAlpha"/>
<feOffset dx="10" dy="-4"/>
<feGaussianBlur stdDeviation="5"/>
<feComposite in2="hardAlpha" operator="out"/>
<feColorMatrix type="matrix" values="0 0 0 0 0.0627451 0 0 0 0 0.188235 0 0 0 0 0.839216 0 0 0 0.25 0"/>
<feBlend mode="normal" in2="BackgroundImageFix" result="effect1_dropShadow_246_59"/>
<feBlend mode="normal" in="SourceGraphic" in2="effect1_dropShadow_246_59" result="shape"/>
<feGaussianBlur stdDeviation="100" result="effect2_foregroundBlur_246_59"/>
</filter>
</defs>
</svg>
